<?xml version="1.0" encoding="UTF-8"?>
<svg id="Layer_1" data-name="Layer 1" xmlns="http://www.w3.org/2000/svg" viewBox="0 0 667 375">
  <defs>
    <style>
      .cls-1 {
        stroke-miterlimit: 10;
      }

      .cls-1, .cls-2 {
        fill: none;
        stroke: #fff;
      }

      .cls-3 {
        fill: #fff;
      }

      .cls-2 {
        stroke-linecap: round;
        stroke-linejoin: round;
      }
    </style>
  </defs>
  <g id="hAXinH.tif">
    <g>
      <path class="cls-1" d="M225.63,59.95c.76-.74,2.54-1.82,3.54-2.23,1.94-.8,6.53-1.07,2.69-3.81-5.72.42-11.44,1.05-17.15,1.51-3.74.3-7.49.59-11.24.9-1.08.09-4.18-.34-4.73.6-1.31,2.23,1.26,2.46,2.43,3.2,1.44.91,1.74,1.94,1.74,3.62-5.75,13.85-10.6,28.08-16.82,41.72l-15.76-38.12c-.6-1.83.26-3.7,1.78-4.76,1.05-.73,2.25-.29,1.92-2.2-.25-1.45-1.98-1.03-3.11-1.04l-30.86,3.06c-1.43,3.43,1.25,2.65,3.4,3.43,2.54.92,4.59,3.38,4.83,6.12l.13,76.92c-.4,4.69-4.38,9.06-7.84,11.97-.79.66-4.52,2.94-4.72,3.27-.7,1.17.08,3.19,1.7,2.6,5.79-2.23,11.55-4.6,17.44-6.57,4.26-1.42,10.24-2.51,14.14-4.22,1.23-.54,1.43-1.36,1.18-2.66s-1.27-.45-2.21-.43c-6.98.19-9.5-.71-9.95-8.12-1.04-17.26,0-36.78.24-54.14.03-2.19-.58-4.43-.32-6.67l.82.51,21.59,50.35c.77.71,3.19-.39,4.22-.51,7.58-17.26,13.69-35.43,21.07-52.86.22-.52.37-1.61,1.11-1.4.16,1.16-.27,2.25-.3,3.39-.46,16.89,1.24,35.17.11,51.8-.26,3.84-1.68,6.86-5.13,8.77-.76.42-3.71,1.28-3.97,1.5-.87.74-.35,3.57,1.27,3.35,9.59-1.91,19.29-3.38,28.99-4.64,1.04-.14,4.75-.02,5.4-.67.3-.3.91-2.12.37-2.46-.51-.32-4.94-.84-6.31-1.38-2.96-1.16-4.23-3.87-4.66-6.88l-.11-66.57c.58-2.15,1.45-4.67,3.06-6.25ZM312.55,70.51l.04,27.36c-3.12-3.64-6.1-7.45-9.02-11.25-3.27-4.26-6.84-8.82-9.91-13.18-1.34-1.91-5.34-6.39-2.25-8.33,1.29-.81,2.86-.07,2.76-1.94-.12-2.01-4.41-1.4-6.07-1.36-4.59.12-9.31.43-13.9.62-1.13.05-5.85-.2-6.37.15-.48.32-.68,1.84-.31,2.34.11.15,2.83.85,3.55,1.25,2.42,1.33,3.35,3.6,3.86,6.2-.8,15.78,1.26,32.87.12,48.5-.31,4.29-1.91,6.44-5.84,8.07-.63.26-1.94.29-2.13.85s.27,2.2,1.02,2.2l23.18-1.57c1.31-3.18-.92-2.49-3-3.27-1.46-.55-3.52-1.7-4.32-3.08-.18-.31-.94-2.41-.94-2.62l-.06-37.87s.43-.59.59-.3l27.4,36.23c1.85,3.18,3.01,6.27-1.57,7.24-2.29.48-5.45-.41-3.38,3.06l41.86-.75c1.19-3.02-.77-2.31-2.59-3.07-5.9-2.44-4.28-6.37-2.92-11.29.74-2.7,1.93-7.34,2.94-9.77.11-.27.24-.74.57-.79.68-.11,4.38,1.1,5.28,1.45,1.82.7,6.88,2.95,8.5,4.04,6.16,4.14,11.38,13.17,6.83,16.12-.98.63-4.16,1.15-4.29,1.33-.42.59-.23,2.36.67,2.62,1.85.54,7.6-.07,10.01.03,7.5.31,15.57.9,23.07,1.46,5.72.43,11.45,1.25,17.16,1.76.89-.07,1.36-1.73.91-2.4-.18-.26-4.36-1.63-5.63-2.65-1.18-.94-2.82-3.04-2.83-4.57l-.06-42.75,18.32,41.69,3.38-.21,17.38-38.88c.08-.08.38.16.45.29.4.8.2,9.99.18,11.7-.11,8.92-.04,18-.28,26.89-.12,4.26,1.23,9.53-4.39,10.69-2.42.5-4.28-.72-3.23,3.05l30.45,4.58c.51-.48.85-1.66.45-2.24-.14-.2-3.7-1.64-4.41-2.1-2.62-1.68-4.7-4.21-4.66-7.47l-.05-56.19c.52-2.49,2.2-4.53,4.55-5.51,2.13-.89,5.3.05,3.81-3.27l-28.53-.83c-.6,2.75,1.24,2.13,2.54,3.53.47.51,1.03,1.4.9,2.09-3.92,8.79-7.55,17.77-11.71,26.45-.54,1.12-1.16,2.57-1.72,3.6-.18.33-.22.8-.75.73l-12.87-30.97c-.15-.74.35-1.75.83-2.29,1.2-1.36,4.17-1.23,2.54-3.43l-28.47-.55c-1.61,2.32,1.42,2.33,2.91,3.06,2.28,1.11,3.84,3.06,4.09,5.67l.05,52.36c-3.05,7.69-10.62,5.57-13.74-1-2.54-5.36-4.74-14.64-6.61-20.63-3-9.61-6.59-20.12-8.99-29.8-.68-2.73-.98-4.74,1.83-6.41,1.74-1.03,5.15-.63,3.61-3.2l-29.38-.34c-2.08,2.26,1.07,2.39,2.51,3.29s2.25,2.25,2.31,3.94c-2.98,8.78-5.44,17.78-8.67,26.44-3.61-.24-5.83.72-7.95,3.61-1.4,1.91-2.59,3.75-1.3,5.94.72,1.22,1.49-.63,2.04-1.07.94-.73,5.32-2.27,5.09-.27-.09.76-.92,2.9-1.21,3.84-1.51,4.84-3.86,14.03-7.74,17.1-2.87,2.27-7.91,3.25-8.14-1.6l-.06-51.18c.26-2.91,1.75-5.55,4.51-6.73.82-.35,3.45-.74,3.77-.97.59-.41.53-2.88-.74-2.54l-22.97.47c-1.24,2.19,1.53,2.25,2.99,2.96,2.35,1.15,3.88,2.92,4.14,5.62ZM263.68,65.37c.29-.3.36-2.11-.26-2.48-.79-.47-6.76.28-8.19.35-5.96.28-12.68.23-18.59.74-.64.05-2.6.26-2.77.78-.8,2.38,2.31,2.13,3.92,2.8,2.91,1.22,3.5,3.32,3.76,6.3-.74,16.22,1.03,33.31.07,49.43-.26,4.45-1.1,6.71-5.25,8.65-1.75.82-4.05.35-1.95,3.29l29.37-3c.82-3.49-.64-2.39-3.09-3.2-3.24-1.07-4.62-2.56-4.89-6.06l-.03-50.86c.41-2.88,2.63-4.96,5.21-6.03.61-.25,2.6-.61,2.7-.71ZM492.12,64.85c-28.27,9-27.88,62.78-11.21,81.88,11.67,13.38,31.21,13.46,41.53-1.45,12.04-17.4,11.66-50.97.49-68.57-9.35-14.74-20.6-15.11-30.81-11.86ZM476.45,163.65c-9.37-6.16-19.26-5.24-30.14-6.23-5.27-.48-11.04-1.54-16.29-1.74-1.68-.06-4.34-.58-4.82,1.41-.35,1.42,1.37,1.19,2.7,1.91,2.61,1.41,4.74,4.58,4.88,7.56.03.65.16,42.34.19,62.34,0,2.42-1.45,5.62-3.87,6.51-.85.31-3.93.54-4.09.8-.13.2-.1,2.12,0,2.43.15.43.73.55,1.13.65,5.72,1.42,11.95,2.08,17.78,3.5,5.4,1.32,10.69,3.2,16.1,4.5.59-.11,1.61-2.01,1.23-2.6-.14-.22-3.89-1.9-4.7-2.41-2.54-1.61-7.09-5.27-7.62-8.36l-.04-24.7,7.25,1.76c4.25,11.04,8.04,22.37,13.66,32.82,5.37,9.98,15.54,22.85,28.59,17.55,2.52-1.03,7.98-6.03,7.69-8.87-.26-2.52-3.85-.22-5.23-.17-7.34.25-14.99-11.95-18.23-17.5-4.62-7.92-8.26-16.43-11.79-24.89,2.26-1.32,4.92-1.98,7.04-3.58,9.73-7.32,10.65-22.28,6.24-32.88-2.49-5.96-5.07-8.08-7.67-9.79ZM293.73,160.79c-12.79-7.66-29.99-2.33-37.49,10.15-9.99,16.61-7.32,49.22,15.11,54.07,32.54,7.03,45.1-33.53,30.23-56.09-2.48-3.76-4.28-5.99-7.85-8.12ZM394.41,186.2h-2.37s-.03-21.15-.03-21.15c0-.21.49-.4.74-.44,1.41-.26,5.2-.1,6.82-.02,6.59.31,12.36,1.36,16.07,7.29.42.67,1.94,3.98,2.13,4.1.36.23,3.66-.87,3.78-1.54.14-.75-.48-3.42-.53-4.41-.14-2.78.09-6.13-.33-8.85-.07-.47-.27-1.13-.77-1.3l-48.05-2.35c-.45,3.16.69,2.34,2.65,3.42,2.27,1.26,3.09,2.75,3.29,5.29.51,6.39-.27,13.55-.11,20.01-.48,1.75-7.13.79-5.63,4.12,1.1,2.45,5.57-.49,5.79,2.2-.6,6.91.81,15.12-.01,21.87-.11.9-.71,2.45-1.32,3.12-.71.78-4.17,2.48-5.16,2.27-1.41-.3-5.5-3.04-6.47-4.2-2.18-2.61-5.94-11.49-7.72-15.07-1.84-3.71-3.46-7.54-5.34-11.24-.59-1.17-4.47-7.76-4.49-8.22-.02-.65,6.3-9.28,7.25-10.49,2.45-3.15,6.16-8.21,9.97-9.56,2.5-.89,5.48,0,3.26-3.82l-22.47.03c-.5.27-.55,2.23-.4,2.38.06.06,1.17.12,1.63.29,5.91,2.16,2.6,6.14.21,9.7-4.2,6.24-9.7,13.07-14.41,19.01-.38.48-.96,1.54-1.6,1.51l-.04-24.41c0-1.73,2.14-4.15,3.63-4.94,1.79-.95,6.02-.93,3.25-3.73-5.79.02-11.62-.19-17.41-.05-2.64.07-7.08-.01-9.47.31-1.11.15-1.55.79-1.33,1.94.18.91,2.98,1.21,4.07,1.86,2.13,1.26,2.79,2.89,3.02,5.27,1.41,14.75-.92,31.46.12,46.42-.09,2.79-1.39,4.98-3.94,6.12-1.87.83-4.53.38-3.18,3.36l28.68-.55c.26-.58.58-1.83.21-2.35-.35-.48-5.77-.92-7.13-4.11-1.25-2.93-.11-9.67-.32-13.02,2.26-3.26,4.78-6.44,7.39-9.46l11.35,23.8c-.33,1.54-4.53,2.61-4.8,3.09-.14.24.35,1.59.16,2.09,19.73.04,39.41,1.48,59.04,2.87,5.39.94,10.86.99,16.26,1.71l3.69-16.69c0-1.05-2.6-1.75-3.25-1.48-.68.28-2.6,3.62-3.26,4.45-2.6,3.26-4.45,4.65-8.62,5.59-3.65.82-11.55.17-15.46-.38-1.17-.17-1.35-.79-1.35-1.9l-.04-23.07c0-.63,3.06-.48,3.71-.46,3.44.11,8.47.33,10.95,2.95.88.93,2.63,4.66,3.11,4.89.7.34,2.96-.5,2.96-.9l-.03-18.78c-.69-.08-3.1-.6-3.51-.24-.18.15-1.45,3.23-2.25,4.1-3.06,3.36-8.23,1.9-12.28,1.79h-.3ZM235.72,162.36c-6.82-5.51-13.86-5.12-22.29-4.24l-36.58,5.78c-1.51,3.84,1.78,2.53,4.16,3.25,3.54,1.07,5.17,4.16,5.33,7.69l.06,33.43c-.16.87-1.68.73-3.53,2.39-1.45,1.3-4.59,6.05-4.47,7.98.19,3.13,2.64-.12,3.43-.74,1.5-1.17,4.06-3.43,5.17-1.79.24.35-.78,1.5-.8,3.34-.17,14.31,4.49,27.21-8.47,37.2-.95.73-5.19,3.06-5.43,3.45-1.03,1.6.01,3.73,2.05,2.94,8.46-3.81,17.08-7.84,25.86-10.86,5.01-1.72,11.27-2.86,16-4.73,1.4-.56,5.17-4.93,2.9-5.31-.22-.04-3.39,1.44-4.23,1.62-2.11.46-5.8.46-7.87-.14-4.02-1.16-3.59-5.1-3.7-8.44-.07-2.21-.27-4.55-.32-6.8-.08-4.13.03-8.27.03-12.4.14-.5.54-.45.98-.5,4.17-.52,8.79.32,13.26-.38,22.93-3.59,34.74-27.65,23-47.5-.88-1.49-3.18-4.15-4.53-5.24Z"/>
      <path class="cls-1" d="M362.91,104.01c-4.87-2.99-9.44-6.01-15.1-7.38l6.78-21.59c.42-.04.48.7.59,1.03,1.95,5.73,3.69,11.92,5.33,17.76.71,2.52,2.21,6.69,2.5,9.06.05.44-.01.71-.1,1.12Z"/>
      <path class="cls-1" d="M451.85,202.09c16.78,5.26,22.38-16.83,16.18-28.51-3.51-6.62-11.17-8.44-18.17-8.47-.36,0-.91.09-1.02.46l.05,35.65c0,.12,2.96.88,2.96.88Z"/>
      <path class="cls-1" d="M202.96,207.5l.23-39.44c7.9-3.4,17.9-2.81,21.88,5.88,2.9,6.32,2.24,17.72-.84,23.89-3.15,6.3-10.21,10.01-17.41,9.97-1.47,0-3.85-.29-3.85-.29Z"/>
      <path class="cls-1" d="M499.23,70.46c7.11-.7,10.98,6.83,12.67,12.61,4.06,13.96,4.4,47.31-2.32,60.32-5.67,10.98-15.29,6.42-19.4-2.99-6.15-14.07-5.95-44.79-1.01-59.3,1.62-4.75,4.43-10.09,10.06-10.65Z"/>
      <path class="cls-1" d="M278.3,163.39c5.24-.61,9,2.63,10.96,7.22,4.37,10.27,4.6,35-1.81,44.43-3.55,5.22-9.57,6.03-14.59,2.24-8.67-6.54-8.03-29.87-5.87-39.47,1.33-5.89,4.51-13.63,11.32-14.42Z"/>
    </g>
  </g>
  <rect class="cls-2" x="5" y="5" width="657" height="365" rx="5" ry="5"/>
  <rect class="cls-2" x="5" y="5" width="657" height="365" rx="5" ry="5"/>
  <g>
    <g>
      <path class="cls-2" d="M327.73,252.56c0-3.19,2.59-5.77,5.77-5.77s5.77,2.59,5.77,5.77"/>
      <path class="cls-2" d="M339.27,290.72c0,3.19-2.59,5.77-5.77,5.77s-5.77-2.59-5.77-5.77"/>
      <path class="cls-2" d="M342.91,254.07c2.26-2.26,5.91-2.26,8.17,0s2.26,5.91,0,8.17"/>
      <path class="cls-2" d="M324.09,289.22c-2.26,2.26-5.91,2.26-8.17,0s-2.26-5.91,0-8.17"/>
      <path class="cls-2" d="M352.58,265.87c3.19,0,5.77,2.59,5.77,5.77s-2.59,5.77-5.77,5.77"/>
      <path class="cls-2" d="M314.42,277.42c-3.19,0-5.77-2.59-5.77-5.77s2.59-5.77,5.77-5.77"/>
      <path class="cls-2" d="M351.07,281.05c2.26,2.26,2.26,5.91,0,8.17s-5.91,2.26-8.17,0"/>
      <path class="cls-2" d="M315.93,262.23c-2.26-2.26-2.26-5.91,0-8.17s5.91-2.26,8.17,0"/>
    </g>
    <circle class="cls-3" cx="206.45" cy="312.85" r="1.24"/>
    <circle class="cls-3" cx="213.5" cy="316.19" r="1.24"/>
    <g>
      <path class="cls-2" d="M312.07,280.35c-20.78,8.52-37.65,9.87-49.26,9.52-27.46-.84-40-11.68-68.23-11.56-17.76.07-32.23,4.45-41.63,8.09"/>
      <path class="cls-2" d="M289.44,287.34c-10.96,2.14-21.58-5.02-23.72-15.98-1.71-8.77,4.02-17.27,12.79-18.97,7.02-1.37,13.81,3.21,15.18,10.23,1.09,5.61-2.57,11.05-8.18,12.14-4.49.87-8.84-2.06-9.71-6.55-.7-3.59,1.65-7.07,5.24-7.77"/>
      <path class="cls-2" d="M152.47,286.58c-12.07,3.88-25.01-2.76-28.89-14.83-3.11-9.66,2.21-20.01,11.87-23.11,7.73-2.48,16,1.77,18.49,9.49,1.99,6.18-1.41,12.8-7.59,14.79"/>
      <path class="cls-2" d="M224.81,282.65c-11.96-2.1-23.36,5.89-25.46,17.85-1.68,9.57,4.71,18.69,14.28,20.37,7.65,1.35,14.95-3.77,16.3-11.42,1.08-6.12-3.01-11.96-9.14-13.04-4.9-.86-9.57,2.41-10.43,7.31-.69,3.92,1.93,7.65,5.85,8.34"/>
      <path class="cls-2" d="M273.29,289.69c-7.27,2.34-11.26,10.14-8.92,17.4"/>
      <path class="cls-2" d="M256.75,289.51c-7.3.53-12.78,6.88-12.25,14.18.25,3.41,2.09,6.33,4.74,8.08"/>
      <path class="cls-2" d="M291.96,292.28c9.92-.06,17.88-6.82,17.88-6.82,0,0-1.72,8.95,2.22,15.51"/>
      <path class="cls-2" d="M265.51,266.27c1.22-5.11-1.93-10.23-7.04-11.45-4.09-.97-8.19,1.55-9.16,5.63-.78,3.27,1.24,6.55,4.51,7.33"/>
      <path class="cls-2" d="M309.34,293.01c-1.62,3.37-6.11,4.58-6.11,4.58,0,0-1.86-4.26-.23-7.63"/>
      <path class="cls-2" d="M309.94,296.36c-2.67,5.55-10.05,7.53-10.05,7.53,0,0-3.06-7.01-.39-12.55"/>
      <path class="cls-2" d="M128.62,269.4c-2.12-6.6,1.51-13.66,8.1-15.78,5.28-1.7,10.93,1.21,12.63,6.48"/>
      <circle class="cls-3" cx="147.55" cy="266.16" r="1.24"/>
      <circle class="cls-3" cx="130.91" cy="274.5" r="1.24"/>
      <circle class="cls-3" cx="135.03" cy="279.29" r="1.24"/>
      <path class="cls-2" d="M218.53,315.98c4.5-.3,7.9-4.2,7.6-8.69-.24-3.6-3.36-6.32-6.95-6.08"/>
      <path class="cls-2" d="M166.35,285.44c18.48-5.71,41.85-3.91,41.85-3.91,0,0-19.46,13.45-13.75,25.1"/>
      <path class="cls-2" d="M200.24,288.36c-3.95,2.54-9.35,1.2-9.35,1.2,0,0,1.02-5.46,4.97-8.01"/>
      <path class="cls-2" d="M196.56,293.06c-6.53,4.2-15.43,1.99-15.43,1.99,0,0,1.68-9.02,8.21-13.22"/>
      <path class="cls-2" d="M283.68,288.52c-3.81,3.25-4.27,8.98-1.02,12.79"/>
      <path class="cls-2" d="M266.4,285.05c-24.1,2.26-40.22-11.14-45.34-19.53"/>
      <path class="cls-2" d="M220.89,265.27c-3.03-5.29-1.2-12.03,4.09-15.05,4.23-2.42,9.62-.96,12.04,3.27,1.94,3.38.77,7.7-2.62,9.64-2.71,1.55-6.16.61-7.71-2.09-1.24-2.17-.49-4.93,1.68-6.17"/>
      <path class="cls-2" d="M187.94,273.67c16.38-2.9,37.19,4.01,37.19,4.01,0,0-16.63-13.65-11.77-21.41"/>
      <path class="cls-2" d="M201.23,273.02c-4.57-1.3-7.22-6.05-5.93-10.62,1.04-3.66,4.84-5.78,8.5-4.74,2.92.83,4.62,3.87,3.79,6.8-.66,2.34-3.1,3.7-5.44,3.03"/>
      <path class="cls-2" d="M242.17,281.73c-3.35-3.68-3.09-9.39.6-12.74"/>
      <circle class="cls-3" cx="229.68" cy="270.19" r="1.24"/>
      <circle class="cls-3" cx="224.3" cy="264.8" r="1.24"/>
      <circle class="cls-3" cx="272.8" cy="277" r="1.24"/>
      <circle class="cls-3" cx="279.53" cy="281.99" r="1.24"/>
      <circle class="cls-3" cx="270.54" cy="268.9" r="1.24"/>
      <path class="cls-2" d="M271.8,263.25c1.02-4.81,5.75-7.89,10.56-6.87,3.85.82,6.31,4.6,5.49,8.45"/>
      <path class="cls-2" d="M154.62,285.81c-6.58,2.74-9.69,10.29-6.96,16.87,2.19,5.26,8.23,7.76,13.5,5.57,4.21-1.75,6.2-6.59,4.45-10.8-1.4-3.37-5.27-4.96-8.64-3.56"/>
      <path class="cls-2" d="M170.89,280.96c-5.04,1.65-10.51-1.08-12.22-6.1-1.37-4.01.79-8.34,4.82-9.66"/>
      <path class="cls-2" d="M170.27,277.87c-2,.3-4.12-.42-5.55-2.08-1.77-2.05-1.56-5.12.47-6.86"/>
      <ellipse class="cls-3" cx="175.83" cy="277.02" rx="1.13" ry="1.14" transform="translate(-150.17 314.18) rotate(-64.1)"/>
      <path class="cls-2" d="M292.37,258.85c3.4,3.59,9.06,3.75,12.66.36,2.87-2.72,3-7.25.29-10.13-2.17-2.3-5.8-2.4-8.1-.23-1.84,1.74-1.92,4.64-.18,6.48"/>
      <circle class="cls-3" cx="300.74" cy="251.99" r="1.24"/>
      <path class="cls-2" d="M298.95,261.83c2.02,2.6,1.2,6.61,1.2,6.61,0,0-4.08-.21-6.1-2.82"/>
      <path class="cls-2" d="M247.39,294.38c-3.38,1.61-7.63-.26-7.63-.26,0,0,1.22-4.48,4.6-6.09"/>
      <path class="cls-2" d="M127.18,285.33c4.76,5.4,16.32,5.53,16.32,5.53,0,0-4.45,9.65.95,14.74"/>
      <path class="cls-2" d="M141.65,296.33c-3.39,2.18-8.02,1.03-8.02,1.03,0,0,.87-4.69,4.26-6.87"/>
      <path class="cls-2" d="M152.09,301.65c1.1,2.63,4.12,3.88,6.75,2.78,2.11-.88,3.1-3.29,2.23-5.4"/>
    </g>
    <g>
      <path class="cls-2" d="M354.93,280.35c20.78,8.52,37.65,9.87,49.26,9.52,27.46-.84,40-11.68,68.23-11.56,17.76.07,32.23,4.45,41.63,8.09"/>
      <path class="cls-2" d="M377.56,287.34c10.96,2.14,21.58-5.02,23.72-15.98,1.71-8.77-4.02-17.27-12.79-18.97-7.02-1.37-13.81,3.21-15.18,10.23-1.09,5.61,2.57,11.05,8.18,12.14,4.49.87,8.84-2.06,9.71-6.55.7-3.59-1.65-7.07-5.24-7.77"/>
      <path class="cls-2" d="M514.53,286.58c12.07,3.88,25.01-2.76,28.89-14.83,3.11-9.66-2.21-20.01-11.87-23.11-7.73-2.48-16,1.77-18.49,9.49-1.99,6.18,1.41,12.8,7.59,14.79"/>
      <path class="cls-2" d="M442.19,282.65c11.96-2.1,23.36,5.89,25.46,17.85,1.68,9.57-4.71,18.69-14.28,20.37-7.65,1.35-14.95-3.77-16.3-11.42-1.08-6.12,3.01-11.96,9.14-13.04,4.9-.86,9.57,2.41,10.43,7.31.69,3.92-1.93,7.65-5.85,8.34"/>
      <path class="cls-2" d="M393.71,289.69c7.27,2.34,11.26,10.14,8.92,17.4"/>
      <path class="cls-2" d="M410.25,289.51c7.3.53,12.78,6.88,12.25,14.18-.25,3.41-2.09,6.33-4.74,8.08"/>
      <path class="cls-2" d="M375.05,292.28c-9.92-.06-17.88-6.82-17.88-6.82,0,0,1.72,8.95-2.22,15.51"/>
      <path class="cls-2" d="M401.49,266.27c-1.22-5.11,1.93-10.23,7.04-11.45,4.09-.97,8.19,1.55,9.16,5.63.78,3.27-1.24,6.55-4.51,7.33"/>
      <path class="cls-2" d="M357.66,293.01c1.62,3.37,6.11,4.58,6.11,4.58,0,0,1.86-4.26.23-7.63"/>
      <path class="cls-2" d="M357.06,296.36c2.67,5.55,10.05,7.53,10.05,7.53,0,0,3.06-7.01.39-12.55"/>
      <path class="cls-2" d="M538.38,269.4c2.12-6.6-1.51-13.66-8.1-15.78-5.28-1.7-10.93,1.21-12.63,6.48"/>
      <circle class="cls-3" cx="519.45" cy="266.16" r="1.24"/>
      <circle class="cls-3" cx="536.09" cy="274.5" r="1.24"/>
      <circle class="cls-3" cx="531.97" cy="279.29" r="1.24"/>
      <circle class="cls-3" cx="460.55" cy="312.85" r="1.24"/>
      <circle class="cls-3" cx="453.5" cy="316.19" r="1.24"/>
      <path class="cls-2" d="M448.47,315.98c-4.5-.3-7.9-4.2-7.6-8.69.24-3.6,3.36-6.32,6.95-6.08"/>
      <path class="cls-2" d="M500.65,285.44c-18.48-5.71-41.85-3.91-41.85-3.91,0,0,19.46,13.45,13.75,25.1"/>
      <path class="cls-2" d="M466.76,288.36c3.95,2.54,9.35,1.2,9.35,1.2,0,0-1.02-5.46-4.97-8.01"/>
      <path class="cls-2" d="M470.44,293.06c6.53,4.2,15.43,1.99,15.43,1.99,0,0-1.68-9.02-8.21-13.22"/>
      <path class="cls-2" d="M383.32,288.52c3.81,3.25,4.27,8.98,1.02,12.79"/>
      <path class="cls-2" d="M400.6,285.05c24.1,2.26,40.22-11.14,45.34-19.53"/>
      <path class="cls-2" d="M446.11,265.27c3.03-5.29,1.2-12.03-4.09-15.05-4.23-2.42-9.62-.96-12.04,3.27-1.94,3.38-.77,7.7,2.62,9.64,2.71,1.55,6.16.61,7.71-2.09,1.24-2.17.49-4.93-1.68-6.17"/>
      <path class="cls-2" d="M479.06,273.67c-16.38-2.9-37.19,4.01-37.19,4.01,0,0,16.63-13.65,11.77-21.41"/>
      <path class="cls-2" d="M465.77,273.02c4.57-1.3,7.22-6.05,5.93-10.62-1.04-3.66-4.84-5.78-8.5-4.74-2.92.83-4.62,3.87-3.79,6.8.66,2.34,3.1,3.7,5.44,3.03"/>
      <path class="cls-2" d="M424.83,281.73c3.35-3.68,3.09-9.39-.6-12.74"/>
      <circle class="cls-3" cx="437.32" cy="270.19" r="1.24"/>
      <circle class="cls-3" cx="442.7" cy="264.8" r="1.24"/>
      <circle class="cls-3" cx="394.2" cy="277" r="1.24"/>
      <circle class="cls-3" cx="387.47" cy="281.99" r="1.24"/>
      <circle class="cls-3" cx="396.46" cy="268.9" r="1.24"/>
      <path class="cls-2" d="M395.2,263.25c-1.02-4.81-5.75-7.89-10.56-6.87-3.85.82-6.31,4.6-5.49,8.45"/>
      <path class="cls-2" d="M512.38,285.81c6.58,2.74,9.69,10.29,6.96,16.87-2.19,5.26-8.23,7.76-13.5,5.57-4.21-1.75-6.2-6.59-4.45-10.8,1.4-3.37,5.27-4.96,8.64-3.56"/>
      <path class="cls-2" d="M496.11,280.96c5.04,1.65,10.51-1.08,12.22-6.1,1.37-4.01-.79-8.34-4.82-9.66"/>
      <path class="cls-2" d="M496.73,277.87c2,.3,4.12-.42,5.55-2.08,1.77-2.05,1.56-5.12-.47-6.86"/>
      <ellipse class="cls-3" cx="491.17" cy="277.02" rx="1.14" ry="1.13" transform="translate(-71.67 242.38) rotate(-25.9)"/>
      <path class="cls-2" d="M374.63,258.85c-3.4,3.59-9.06,3.75-12.66.36-2.87-2.72-3-7.25-.29-10.13,2.17-2.3,5.8-2.4,8.1-.23,1.84,1.74,1.92,4.64.18,6.48"/>
      <circle class="cls-3" cx="366.26" cy="251.99" r="1.24"/>
      <path class="cls-2" d="M368.05,261.83c-2.02,2.6-1.2,6.61-1.2,6.61,0,0,4.08-.21,6.1-2.82"/>
      <path class="cls-2" d="M419.61,294.38c3.38,1.61,7.63-.26,7.63-.26,0,0-1.22-4.48-4.6-6.09"/>
      <path class="cls-2" d="M539.82,285.33c-4.76,5.4-16.32,5.53-16.32,5.53,0,0,4.45,9.65-.95,14.74"/>
      <path class="cls-2" d="M525.35,296.33c3.39,2.18,8.02,1.03,8.02,1.03,0,0-.87-4.69-4.26-6.87"/>
      <path class="cls-2" d="M514.91,301.65c-1.1,2.63-4.12,3.88-6.75,2.78-2.11-.88-3.1-3.29-2.23-5.4"/>
    </g>
  </g>
  <polyline class="cls-2" points="12.62 58.98 12.62 12.71 58.31 12.71"/>
  <polyline class="cls-2" points="58.31 362.29 12.62 362.29 12.62 316.02"/>
  <polyline class="cls-2" points="654.38 316.02 654.38 362.29 608.69 362.29"/>
  <polyline class="cls-2" points="608.69 12.71 654.38 12.71 654.38 58.98"/>
</svg>